<?xml version="1.0" encoding="utf-8"?>
<!-- Generator: Adobe Illustrator 25.2.0, SVG Export Plug-In . SVG Version: 6.00 Build 0)  -->
<svg version="1.1" id="Layer_1" xmlns="http://www.w3.org/2000/svg" xmlns:xlink="http://www.w3.org/1999/xlink" x="0px" y="0px"
	 viewBox="0 0 471 471" style="enable-background:new 0 0 471 471;" xml:space="preserve">
<style type="text/css">
	.st0{fill:#C7B3F0;}
	.st1{clip-path:url(#SVGID_2_);}
	.st2{fill:url(#SVGID_3_);}
</style>
<path class="st0" d="M59,224c-19-37.8-35.5-76-54.2-113.2c102-12.2,203.8-16.2,305.9-12.4c0.7,0.9,1.3,1.7,2,2.6
	c-1.5,0.6-3.1,0.9-4.4,1.7c-20.7,13.1-35.2,32.1-49.5,51.4c-11.1,15-22.5,29.9-33.4,45c-10.9,15.2-26.8,18-43.4,16.1
	c-21.4-2.5-42.7-6.5-64.2-4.3c-13.5,1.4-26.7,5.3-40,8.2C72.5,220.2,65,222.4,59,224z"/>
<g>
	<defs>
		<path id="SVGID_1_" d="M59,224c-19-37.8-35-75.9-53.7-113.2c101.9-12.1,203.8-16.1,305.9-12.4c0.7,0.9,1.3,1.8,2,2.7
			c-1.5,0.5-3.1,0.8-4.4,1.6c-20.6,13.1-35.2,32.1-49.5,51.4c-11.1,15.1-22.5,29.9-33.4,45.1c-10.9,15.2-26.8,17.9-43.4,16
			c-21.4-2.5-42.7-6.4-64.3-4.2c-13.5,1.4-26.7,5.2-40,8.2C73,220.3,65,222.4,59,224z"/>
	</defs>
	<clipPath id="SVGID_2_">
		<use xlink:href="#SVGID_1_"  style="overflow:visible;"/>
	</clipPath>
	<g class="st1">
		<g transform="matrix(1,0,0,1,-181,-152)">
		</g>
	</g>
</g>
<linearGradient id="SVGID_3_" gradientUnits="userSpaceOnUse" x1="41.4692" y1="69.331" x2="407.4761" y2="303.1032">
	<stop  offset="0" style="stop-color:#ECD46A"/>
	<stop  offset="0.5" style="stop-color:#E4BF2B"/>
	<stop  offset="1" style="stop-color:#DEB106"/>
</linearGradient>
<path class="st2" d="M309.9,98.2c-2.2,0.1-21.1,13.5-29.1,24.4s-25.5,28.3-30.7,37c-5.2,8.7-24.1,36.5-32.1,42.4
	c-8,6-8.1,11.1-19.5,11.5s-34.9-2.3-48.3-4.6s-16-3-23.9-1c-8,2-7.5-0.3-14.7,1.3c-7.2,1.6-15.2,3.6-23.2,5.6
	c-8,2-29.9,7.9-29.9,7.9l4,8.9c25.9-9.9,42.9-11.9,55.7-13.9c12.8-2,36.1-1,36.1-1s29.3,5.9,49.6,2.3c30.2-5.3,18.5-12.5,24.2-22.2
	c5.7-9.7,23.9-27.2,30.9-35.9c7-8.7,27.3-35.8,38.1-43.6c10.8-7.8,24.5-18.5,24.5-18.5S319,97.6,309.9,98.2z"/>
</svg>
