<?xml version="1.0" encoding="utf-8"?>
<!-- Generator: Adobe Illustrator 25.2.0, SVG Export Plug-In . SVG Version: 6.00 Build 0)  -->
<svg version="1.1" id="Layer_1" xmlns="http://www.w3.org/2000/svg" xmlns:xlink="http://www.w3.org/1999/xlink" x="0px" y="0px"
	 viewBox="0 0 471 471" style="enable-background:new 0 0 471 471;" xml:space="preserve">
<style type="text/css">
	.st0{fill:#5A1CD7;}
</style>
<path class="st0" d="M288,172.6c-6,3.5-22.3,9-22.3,9S240,193,234.1,202.7C228.2,212.3,223,215,223,215s-5,4,0,0s4-11,4.6-13.7
	s9.4-15.3,17-22.4c7.6-7.1,18.4-20.9,20.8-24c2.3-3,23.6-28.9,29.1-34c5.5-5,26-20.6,26-20.6c2-1.6,5.7-1.7,8.6-1.6
	c29.7,1.5,59.4,3.2,89.1,4.8c15.4,0.8,30.9,1.7,46.4,2.6c-3.5,7.7-7.5,15.2-10.4,23.2c-2.3,6.1-4.4,12.2-6.4,18.4
	c-16.8-4-33.4-8.3-50.8-7.7c-14,1-25,10-38,12c-17,3-34,5-48,12C311,164,294,169,288,172.6L288,172.6z"/>
</svg>
