<?xml version="1.0" encoding="utf-8"?>
<!-- Generator: Adobe Illustrator 25.2.0, SVG Export Plug-In . SVG Version: 6.00 Build 0)  -->
<svg version="1.1" id="Layer_1" xmlns="http://www.w3.org/2000/svg" xmlns:xlink="http://www.w3.org/1999/xlink" x="0px" y="0px"
	 viewBox="0 0 471 471" style="enable-background:new 0 0 471 471;" xml:space="preserve">
<style type="text/css">
	.st0{fill:#5A1CD7;}
	.st1{fill:url(#SVGID_1_);}
</style>
<path class="st0" d="M340.9,285.7c-23.1-17.4-49.4-29.1-74.6-42.8c-13.2-7.1-24.9-16.9-37.2-25.6c-1.1-0.8-2.1-1.9-3-2.9
	c22.2-24.9,54.7-32.7,83.9-46.4c14-7,31-9,48-12c13-2,24-11,38-12c17.4-0.6,34,3.7,50.8,7.7c-5.4,16-10.6,32-17,47.6
	C414.3,237,397.7,276,368,305l-1,1L340.9,285.7z"/>
<linearGradient id="SVGID_1_" gradientUnits="userSpaceOnUse" x1="102.0144" y1="36.3948" x2="428.8935" y2="245.1756">
	<stop  offset="0" style="stop-color:#ECD46A"/>
	<stop  offset="0.5" style="stop-color:#E4BF2B"/>
	<stop  offset="1" style="stop-color:#DEB106"/>
</linearGradient>
<path class="st1" d="M226.5,214.3c0,0,4-2,5.7-5.2s18.3-14.8,18.3-14.8c12.5-5.8,33-15.4,38.6-17.2c5.5-1.8,22.3-9.3,26.9-11.6
	s24.3-6.1,32.5-7.7c8.2-1.6,14.2-0.5,22.2-5.5c8.1-5,23.1-7.2,27.1-8.1s13,5.1,18,5.1c5,0,8-2,11-1c3,1,19.6,3.3,19.8,3.7
	c0.2,0.3,1-4,1-4s-21.8-5-26.8-5.8s-20.1-2.4-26.1-1.6c0,0-8.6,1.7-13.3,3.7s-15.2,6.2-15.2,6.2c-2.5,0.9-31.5,6.6-36.6,7.3
	s-12.9,3.7-16,5.2c-3.1,1.4-25.4,9.2-29.2,11.4s-20.3,6.8-28.1,12s-18.6,9.2-22.1,15c0,0-4,8-7,10c-3,2-5,4-5,4s15.3,14.5,24.9,20
	c12.1,6.9,26.7,17.5,43.2,23.9c14.1,5.4,45.6,25.9,57.1,36c11.6,10.1,14.3,10,15.7,13.5c0,0,0.4,2.5-0.5,3.6l3.9-6.2L348.6,292
	c0,0-12.2-10-15-11.9c-5.8-3.9-31.5-19.3-36.2-21.1c-4.7-1.8-47.6-24.1-70.8-44.4"/>
</svg>
