<?xml version="1.0" encoding="utf-8"?>
<!-- Generator: Adobe Illustrator 25.2.0, SVG Export Plug-In . SVG Version: 6.00 Build 0)  -->
<svg version="1.1" id="Layer_1" xmlns="http://www.w3.org/2000/svg" xmlns:xlink="http://www.w3.org/1999/xlink" x="0px" y="0px"
	 viewBox="0 0 471 471" style="enable-background:new 0 0 471 471;" xml:space="preserve">
<style type="text/css">
	.st0{fill:#5A1CD7;}
	.st1{fill:url(#SVGID_1_);}
</style>
<path class="st0" d="M189,359c1.2,5.5,2.2,10.8,2.7,16.2c-3.9-0.1-7.9-0.2-11.8-0.3c-5.1,0-7.9-1.5-8.8-7.3c-0.6-3.7-3.8-7.5-6.9-10
	c-23-19-44.8-39.3-63.5-62.6c-14-17.4-26.3-36-35.1-56.7c-0.8-1.9-1.4-3.8-2.1-5.6c34.3-14.5,69.5-18.2,105.6-12.5
	c10.5,1.7,20.6,1.9,30.7,0.1c1.1,3.4,2.5,6.6,4.2,9.7c4,7,6,18,1,28c-5,9-16,10-21,18c-7,12-9,24-15,36C161,330,184,342,189,359
	L189,359z"/>
<linearGradient id="SVGID_1_" gradientUnits="userSpaceOnUse" x1="-15.0755" y1="163.1266" x2="337.3455" y2="388.2213">
	<stop  offset="0" style="stop-color:#ECD46A"/>
	<stop  offset="0.5" style="stop-color:#E4BF2B"/>
	<stop  offset="1" style="stop-color:#DEB106"/>
</linearGradient>
<path class="st1" d="M197.3,220.5c0.2-0.3,2.2,7.7,6.3,14.2c3.8,6-1.1,10.5-5.1,15.5s-1,10-4,14s-11,6-14,12s-7,17-9,22s-10,15-9,25
	s11,17,14,22s8,9,9,15s2.8,15.1,2.8,15.1h3l2.8,0c0,0,0.3-12.9-5.2-22c-5.5-9.1-18.8-23.5-18.7-29.3c0.2-5.8-1-5.1,4.1-17.4
	c5.1-12.3,9.8-29.3,14.5-33.3c4.6-4,20.2-9.3,21.6-23c1.4-13.7-8.7-30.7-8.7-30.7L197.3,220.5z"/>
</svg>
