<svg version="1.2" xmlns="http://www.w3.org/2000/svg" viewBox="0 0 459 279" width="459" height="279"><style>.a{fill:#c7b3f0}.b{opacity:.1;mix-blend-mode:overlay}.c{fill:#ffd892}</style><path class="a" d="m56.6 126.5l-56.6-112.8q38-4.5 76.2-7.5 38.2-3 76.5-4.6 38.3-1.5 76.6-1.6 38.3-0.1 76.6 1.4l2 2.6q-0.6 0.2-1.1 0.3-0.6 0.2-1.1 0.4-0.6 0.2-1.1 0.5-0.6 0.2-1.1 0.4c-20.7 13.2-35.2 32.1-49.5 51.5-11.1 15-22.5 29.9-33.4 45-10.9 15.1-26.8 17.9-43.4 16-21.4-2.5-42.7-6.4-64.2-4.2-13.5 1.4-26.7 5.2-40 8.1-5.3 1.2-10.5 2.8-16.4 4.5z"/><path class="b" d="m57 126.5l-56.5-112.7q38-4.5 76.2-7.6 38.2-3 76.5-4.5 38.3-1.6 76.6-1.7 38.3 0 76.6 1.4l2 2.7q-0.6 0.1-1.1 0.3-0.6 0.2-1.2 0.4-0.5 0.2-1 0.4-0.6 0.2-1.1 0.5c-20.6 13.1-35.2 32.1-49.4 51.4-11.2 15.1-22.6 29.9-33.5 45.1-10.9 15.1-26.8 18-43.4 16-21.4-2.5-42.7-6.5-64.2-4.3-13.5 1.4-26.7 5.3-40 8.2-5.3 1.2-10.5 2.8-16.4 4.4z"/><path class="c" d="m305.8 0.8l2 2.6 0.1 0.1h-0.1q-0.6 0.1-1.1 0.3-0.6 0.2-1.1 0.4-0.6 0.2-1.1 0.5-0.6 0.2-1.1 0.5l-3.8 2.8c-1.3 1-2.6 1.9-3.8 2.9-1.2 0.9-2.4 2-3.6 3q-1.8 1.5-3.6 3.1-1.7 1.6-3.4 3.2-1.7 1.7-3.3 3.4-1.7 1.7-3.3 3.4c-8.5 9.3-16 19.5-23.4 29.7-7.4 10.3-14.9 20.4-22.4 30.6l-11.3 15.3q-0.7 1-1.5 2-0.8 0.9-1.6 1.8-0.8 0.9-1.7 1.8-0.9 0.8-1.8 1.7-0.9 0.8-1.9 1.5-1 0.7-2.1 1.4-1 0.7-2.1 1.3-1 0.6-2.1 1.2-1.2 0.5-2.3 0.9-1.1 0.5-2.3 0.9-1.2 0.4-2.4 0.7-1.1 0.3-2.3 0.6c-1.6 0.3-3.3 0.5-4.9 0.8-1.6 0.2-3.2 0.3-4.8 0.3q-1.2 0-2.5 0-1.2 0-2.4-0.1-1.2 0-2.4-0.1-1.2-0.1-2.4-0.3c-3.2-0.3-6.3-0.7-9.5-1.1-12.5-1.7-25-3.5-37.6-4q-2.3-0.1-4.7-0.2-2.3 0-4.7 0.1-2.3 0-4.7 0.2-2.3 0.1-4.7 0.3-2.3 0.3-4.7 0.6-2.3 0.3-4.6 0.7-2.4 0.4-4.7 0.8-2.3 0.5-4.6 1l-18.6 4c-6.2 1.2-12.3 2.9-18.4 4.4l9.1-2.7c3-1 6.1-1.8 9.2-2.5l18.4-4.6q2.3-0.6 4.6-1.1 2.3-0.5 4.7-0.9 2.3-0.5 4.7-0.8 2.3-0.4 4.7-0.7 2.4-0.3 4.8-0.5 2.4-0.2 4.7-0.3 2.4-0.1 4.8-0.1 2.4 0 4.8 0c12.7 0.2 25.4 2 37.9 3.5 3.1 0.4 6.3 0.8 9.4 1.1q1.2 0.1 2.3 0.2 1.2 0.1 2.3 0.2 1.2 0 2.4 0 1.1 0 2.3 0c1.5 0 3.1-0.2 4.6-0.3 1.5-0.1 3-0.4 4.5-0.8q2.3-0.4 4.4-1.2 2.2-0.7 4.3-1.7 2-1 3.9-2.2 2-1.3 3.7-2.8 0.9-0.7 1.7-1.5 0.8-0.8 1.6-1.7 0.7-0.8 1.5-1.7 0.7-0.9 1.4-1.8l11.3-15.2c7.6-10.1 15.2-20.3 22.8-30.3 7.7-10.1 15.4-20.2 24.2-29.4q1.7-1.7 3.4-3.4 1.7-1.7 3.4-3.3 1.8-1.6 3.6-3.1 1.8-1.6 3.7-3.1c1.2-1 2.5-1.9 3.8-2.9 1.2-0.9 2.6-1.8 3.9-2.7 1.2-0.9 2.6-1.7 4-2.6q0.5-0.2 1.1-0.4 0.5-0.3 1.1-0.5 0.5-0.2 1.1-0.3 0.6-0.2 1.2-0.3v0.1z"/></svg>