<svg version="1.2" xmlns="http://www.w3.org/2000/svg" viewBox="0 0 459 279" width="459" height="279"><style>.a{fill:#5a1cd7}.b{fill:#ffd892}</style><path class="a" d="m358.9 206c-7.8-6.3-15.2-12.5-22.8-18.3-23.1-17.5-49.4-29.2-74.6-42.9-13.2-7.1-24.9-16.8-37.2-25.5-2-1.5-3.5-3.8-4.9-5.3 20.3-26.4 39.6-53 60.6-78 9.7-11.5 22.8-20.1 34.7-29.7 2-1.6 5.7-1.8 8.6-1.6 29.7 1.5 59.4 3.1 89.1 4.8q23.1 1.2 46.4 2.6c-3.5 7.6-7.5 15.2-10.5 23.2-8 21.9-14.5 44.4-23.3 66-15.5 37.7-34.1 73.7-63.9 102.7-0.6 0.6-1.2 1.1-2.2 2z"/><path class="b" d="m323.2 4.1q-0.6 0-1.2 0-0.6 0-1.2 0-0.6 0.1-1.2 0.1-0.6 0.1-1.1 0.2-0.6 0.1-1.2 0.2-0.6 0.2-1.1 0.4-0.5 0.3-1 0.6-0.5 0.3-1 0.7c-2.4 2.1-5 4-7.4 6-5 4-10.1 7.9-14.8 12.2q-1.8 1.5-3.6 3.2-1.7 1.6-3.3 3.3-1.7 1.8-3.3 3.6-1.5 1.7-3 3.6-6.1 7.4-11.9 15c-7.9 10.1-15.6 20.3-23.2 30.5-7.7 10.3-15.4 20.5-23.2 30.7l-0.1-1.9c1.3 1.4 2.3 2.8 3.4 3.9q0.1 0.1 0.2 0.2 0.1 0.1 0.2 0.2 0.1 0.1 0.3 0.2 0.1 0.1 0.2 0.2 0.2 0.1 0.4 0.3l0.6 0.4 2.1 1.5 8.4 6.3c5.6 4.1 11.2 8.3 17 12q4.4 2.9 8.9 5.4c3 1.6 6.2 3.3 9.2 5 6.2 3.3 12.4 6.4 18.6 9.8q4.7 2.4 9.3 4.9 4.6 2.6 9.1 5.2 4.5 2.7 9 5.5 4.4 2.8 8.8 5.7c11.6 7.9 22.1 17.2 32.7 26.2l2.2-2-2.1 2.1c-5.6-4.2-11-8.6-16.6-12.9q-8.2-6.4-17-12.1-4.4-2.8-8.9-5.5-4.5-2.7-9.1-5.3-4.5-2.5-9.2-5-4.6-2.4-9.3-4.7l-18.7-9.5q-4.6-2.4-9.3-4.9-4.7-2.5-9.1-5.4c-5.9-3.8-11.6-8-17.2-12.1l-8.5-6.2-2.1-1.6-0.5-0.3q-0.4-0.3-0.6-0.5-0.6-0.5-1.1-1c-1.4-1.3-2.4-2.8-3.5-4l-0.8-0.9 0.7-1 23.3-30.5c7.8-10.2 15.6-20.3 23.7-30.2q6-7.5 12.2-14.8 1.6-1.9 3.2-3.7 1.6-1.8 3.3-3.5 1.8-1.7 3.5-3.3 1.8-1.6 3.7-3.2c4.9-4.1 10.1-7.9 15.3-11.6q3.8-2.9 7.7-5.8 0.5-0.4 1-0.7 0.5-0.3 1.1-0.5 0.6-0.3 1.1-0.4 0.6-0.2 1.2-0.2 0.6-0.1 1.2-0.1 0.6-0.1 1.2-0.1 0.6 0 1.2 0 0.6 0.1 1.2 0.1z"/></svg>