<svg version="1.2" xmlns="http://www.w3.org/2000/svg" viewBox="0 0 459 279" width="459" height="279"><style>.a{fill:#5a1cd7}.b{opacity:.1;mix-blend-mode:overlay}.c{fill:#ffd892}</style><path class="a" d="m60.7 135.6c34.4-14.5 69.6-18.1 105.6-12.4 17 2.7 33.2 1.5 49.4-5.7 22.7 25.3 54.8 35.7 83.3 52 18.9 10.8 37 22.6 53.4 37.1 4.3 3.8 4.8 6.7 1.2 11.4-14.3 18.7-29.5 36.1-50.9 47.1q-0.7 0.4-1.3 0.8-0.6 0.5-1.1 1-0.5 0.5-0.9 1.2-0.4 0.6-0.7 1.3c-1.6 4.8-4.8 6.1-9.5 6.6-37.3 4.1-74.7 2.5-112.1 1.9-5-0.1-7.8-1.5-8.8-7.3-0.6-3.7-3.8-7.5-6.9-10-23-19-44.8-39.3-63.5-62.6-14-17.4-26.2-36.1-35-56.7-0.8-2-1.5-3.9-2.2-5.7z"/><path class="b" d="m60.4 135.1c34.4-14.6 69.6-18.2 105.6-12.5 17 2.7 33.2 1.6 49.4-5.6 22.7 25.2 54.8 35.7 83.3 51.9 18.9 10.8 37 22.6 53.4 37.1 4.3 3.8 4.8 6.6 1.2 11.4-14.3 18.7-29.5 36.1-50.9 47.1q-0.7 0.4-1.3 0.8-0.6 0.5-1.1 1-0.5 0.5-0.9 1.2-0.4 0.6-0.7 1.3c-1.6 4.8-4.8 6.1-9.5 6.6-37.3 4.1-74.7 2.5-112.1 1.9-5-0.1-7.8-1.5-8.8-7.3-0.6-3.7-3.8-7.5-6.9-10-23-19-44.8-39.3-63.5-62.6-14-17.4-26.2-36.1-35-56.8-0.8-1.8-1.5-3.7-2.2-5.5z"/><path class="c" d="m60.6 135q2.3-1 4.6-2 2.3-0.9 4.6-1.8 2.3-0.9 4.6-1.7 2.4-0.9 4.7-1.6 2.4-0.8 4.7-1.5 2.4-0.7 4.8-1.3 2.4-0.7 4.8-1.3 2.4-0.6 4.9-1.1 7.3-1.5 14.7-2.4 7.4-0.9 14.8-1.2 7.5-0.3 14.9-0.1 7.5 0.3 14.9 1.1c1.7 0.1 3.3 0.4 4.9 0.6l4.9 0.7c3.3 0.4 6.5 0.8 9.8 1q2.4 0.1 4.8 0.1 2.5 0 4.9-0.1 2.4-0.2 4.8-0.4 2.4-0.3 4.8-0.7 1.2-0.2 2.4-0.5 1.2-0.2 2.4-0.5 1.2-0.3 2.4-0.6 1.1-0.3 2.3-0.7 1.2-0.4 2.3-0.8 1.2-0.4 2.3-0.8 1.1-0.4 2.2-0.9 1.2-0.4 2.3-0.9l1-0.5 0.7 0.8q3.5 3.8 7.2 7.2 3.7 3.4 7.7 6.5 4 3.2 8.2 6 4.2 2.8 8.6 5.3c5.8 3.4 11.8 6.7 17.9 9.8 6.1 3.1 12.2 6.1 18.3 9.2q4.5 2.4 9 4.9 4.5 2.5 8.9 5.1 4.4 2.6 8.8 5.3 4.3 2.7 8.6 5.5 4.3 2.9 8.4 5.9 4.2 2.9 8.3 6.1 4 3.2 7.9 6.5 3.9 3.3 7.7 6.7-7.8-6.5-16.1-12.6-8.3-6-17-11.3-4.3-2.7-8.7-5.4-4.4-2.6-8.8-5.1-4.5-2.5-9-4.9-4.5-2.3-9.1-4.6c-12.3-6-24.7-11.8-36.6-18.7-11.9-6.8-23.1-15.1-32.5-25.4l1.8 0.4q-1.2 0.5-2.4 1-1.1 0.4-2.3 0.9-1.2 0.4-2.4 0.8-1.2 0.4-2.4 0.8-1.2 0.4-2.4 0.7-1.2 0.3-2.4 0.6-1.3 0.3-2.5 0.5-1.2 0.3-2.5 0.5-2.4 0.4-4.9 0.7-2.5 0.3-5 0.4-2.5 0.1-5 0.1-2.6 0-5.1-0.2-5-0.3-9.9-1.1l-4.9-0.7c-1.6-0.2-3.2-0.5-4.9-0.6-6.5-0.9-13-1.3-19.6-1.5q-4.9-0.2-9.8-0.1-4.9 0.2-9.8 0.5-4.9 0.4-9.8 1-4.9 0.7-9.7 1.6-2.4 0.4-4.9 0.9-2.4 0.5-4.8 1-2.4 0.6-4.8 1.2-2.4 0.6-4.7 1.3l-4.7 1.5c-1.6 0.4-3.2 1-4.7 1.5-3.2 1-6.3 2.3-9.3 3.4z"/></svg>